<?xml version="1.0" encoding="utf-8"?>
<!-- Generator: Adobe Illustrator 16.0.0, SVG Export Plug-In . SVG Version: 6.00 Build 0)  -->
<!DOCTYPE svg PUBLIC "-//W3C//DTD SVG 1.1//EN" "http://www.w3.org/Graphics/SVG/1.1/DTD/svg11.dtd">
<svg version="1.1" id="Layer_1" xmlns="http://www.w3.org/2000/svg" xmlns:xlink="http://www.w3.org/1999/xlink" x="0px" y="0px"
	 width="1070.789px" height="232.503px" viewBox="104.105 280.5 1070.789 232.503"
	 enable-background="new 104.105 280.5 1070.789 232.503" xml:space="preserve">
<g>
	<path fill="#60C0FE" d="M214.165,425.31c1.112-1.097,1.203-2.489,1.483-3.798c4.73-22.06,9.416-44.126,14.204-66.172
		c1.483-6.829,4.152-8.831,11.089-8.885c7.277-0.056,11.051,2.481,12.532,8.945c2.366,10.327,4.499,20.707,6.734,31.064
		c2.792,12.939,5.587,25.878,8.548,39.588c1.419-4.01,1.749-7.508,2.399-10.914c3.737-19.555,7.388-39.129,11.121-58.688
		c1.3-6.813,4.397-9.9,9.742-9.995c7.437-0.133,12.458,6.051,10.763,13.734c-2.676,12.13-5.622,24.201-8.491,36.288
		c-3.818,16.087-7.796,32.137-11.466,48.258c-2.324,10.209-8.785,12.67-18.668,10.348c-3.042-0.713-4.971-2.933-6.205-5.775
		c-2.316-5.337-3.015-11.096-4.305-16.689c-3.941-17.089-7.728-34.213-11.579-51.322c-0.071-0.314,0.021-0.728-0.729-0.939
		c-1.026,4.414-2.075,8.811-3.067,13.218c-3.875,17.197-7.667,34.414-11.622,51.593c-2.21,9.602-11.117,13.715-19.977,9.409
		c-3.44-1.67-5.007-4.778-5.85-8.227c-3.902-15.974-7.718-31.968-11.538-47.961c-2.844-11.906-5.653-23.82-8.464-35.734
		c-0.293-1.243-0.562-2.5-0.734-3.764c-0.817-6.015,2.939-11.273,8.768-12.329c5.96-1.08,10.653,1.882,11.933,8.132
		c2.547,12.437,4.808,24.93,7.163,37.403C210.033,403.135,212.083,414.177,214.165,425.31z"/>
	<path fill="#60C0FE" d="M703.702,347.12c32.887-15.589,66.897-28.17,101.932-37.996c24.74-6.939,49.802-12.44,75.156-16.649
		c17.498-2.904,35.076-5.155,52.715-6.886c11.375-1.115,22.787-1.834,34.209-2.402c17.654-0.881,35.318-1.342,52.986-0.918
		c20.483,0.491,40.942,1.504,61.344,3.581c15.369,1.565,30.697,3.371,45.91,6.085c1.627,0.29,2.775,0.021,3.971-1.477
		c9.017-11.287,27.049-11.887,36.965-1.351c7.191,7.642,7.355,19.046,0.386,26.954c-10.744,12.19-31.515,10.055-39.478-4.065
		c-1.276-2.264-2.131-4.706-2.121-7.299c0.006-1.766-0.744-2.45-2.321-2.676c-9.136-1.301-18.25-2.735-27.402-3.907
		c-16.055-2.057-32.191-3.252-48.338-4.312c-4.199-0.275-8.406-0.493-12.613-0.576c-14.189-0.279-28.377-0.912-42.572-0.521
		c-19.662,0.542-39.313,1.364-58.897,3.263c-35.427,3.43-70.474,9.147-105.054,17.65c-41.051,10.098-80.85,23.772-119.188,41.625
		c-0.33,0.153-0.637,0.354-0.955,0.531c-0.09,0.001-0.246,0.031-0.262-0.001C708.563,352.436,706.315,349.644,703.702,347.12z"/>
	<path fill="#60C0FE" d="M533.813,452.462c-18.262,7.548-36.725,14.548-55.564,20.533c-30.263,9.617-61.038,17.101-92.324,22.545
		c-19.817,3.449-39.736,6.084-59.749,7.99c-11.923,1.135-23.88,1.918-35.855,2.41c-15.186,0.623-30.374,1.176-45.57,0.893
		c-18.844-0.352-37.68-1.104-56.458-2.739c-12.285-1.072-24.576-2.205-36.759-4.195c-1.78-0.291-2.582,0.531-3.488,1.855
		c-9.36,13.655-30.905,13.522-40.112-0.205c-6.097-9.093-3.604-21.045,5.747-27.564c11.338-7.906,27.491-5.051,34.756,6.115
		c1.424,2.188,2.484,4.57,2.736,7.106c0.197,1.984,1.231,2.388,2.775,2.572c6.441,0.777,12.875,1.621,19.325,2.318
		c17.004,1.838,34.07,2.871,51.146,3.746c0.366,0.02,0.732,0.032,1.099,0.039c10.893,0.172,21.789,0.584,32.678,0.463
		c20.037-0.222,40.065-0.935,60.036-2.664c47.007-4.072,93.274-12.269,138.644-25.31c21.191-6.092,42.021-13.264,62.484-21.485
		c0.578-0.231,1.089-0.628,1.632-0.947c0.419-0.307,0.88-0.272,1.278-0.027c3.494,2.146,7.13,4.007,10.939,5.528
		C533.615,451.604,534.026,451.878,533.813,452.462z"/>
	<path fill="#171923" d="M976.224,401.073c0-12.362,0.082-24.726-0.022-37.089c-0.096-11.183,3.27-16.232,15.76-15.966
		c16.111,0.347,32.234,0.084,48.354,0.086c1.009,0,2.019-0.024,3.021,0.038c7.898,0.496,12.012,8.147,8.125,15.133
		c-1.525,2.745-4.082,3.834-7.041,4.098c-5.666,0.507-11.35,0.196-17.025,0.229c-8.883,0.05-17.768,0.056-26.649-0.023
		c-1.738-0.016-2.351,0.37-2.31,2.247c0.131,6.133,0.121,12.271,0.004,18.406c-0.034,1.81,0.48,2.257,2.261,2.244
		c11.354-0.082,22.713-0.043,34.067-0.041c0.916,0,1.834-0.01,2.748,0.03c7.728,0.337,11.738,7.86,7.824,14.637
		c-1.137,1.968-2.896,3.061-5.041,3.437c-1.791,0.314-3.635,0.469-5.455,0.476c-11.264,0.041-22.528,0.063-33.793-0.021
		c-1.899-0.014-2.688,0.226-2.631,2.454c0.178,6.956,0.137,13.921,0.019,20.879c-0.033,1.934,0.538,2.413,2.424,2.402
		c13.278-0.077,26.559-0.051,39.838-0.025c2.465,0.004,4.947-0.051,7.338,0.762c3.957,1.344,5.799,4.335,5.688,9.27
		c-0.109,4.793-2.027,7.688-5.938,8.83c-1.582,0.462-3.215,0.651-4.881,0.649c-17.949-0.017-35.9,0.028-53.851-0.025
		c-8.186-0.025-12.436-3.76-12.608-11.907c-0.293-13.729-0.082-27.47-0.082-41.206C976.317,401.073,976.271,401.073,976.224,401.073
		z"/>
	<path fill="#171923" d="M703.702,347.12c3.695,1.749,5.645,4.835,6.631,8.657c0.012,20.613,0.119,41.228-0.021,61.839
		c-0.043,6.53-1.426,12.905-4.321,18.846c-5.851,11.993-16.127,17.505-28.773,19.324c-7.854,1.132-15.705,0.91-23.466-0.963
		c-15.431-3.725-25.213-14.52-27.468-30.219c-0.563-3.913-0.775-7.836-0.779-11.774c-0.02-17.59-0.01-35.182-0.001-52.772
		c0-1.1,0.033-2.2,0.141-3.292c0.625-6.373,4.839-10.313,10.989-10.312c6.106,0.003,10.407,4.002,11.044,10.317
		c0.11,1.091,0.073,2.196,0.073,3.296c0.004,18.232,0,36.465,0.006,54.697c0.001,1.466-0.026,2.938,0.103,4.395
		c0.987,11.103,6.814,16.801,17.943,17.631c2.574,0.191,5.146,0.104,7.666-0.372c8.564-1.619,13.607-7.231,14.4-15.976
		c0.207-2.277,0.279-4.573,0.283-6.861c0.021-17.682,0.01-35.364,0.021-53.048c0.002-1.371,0.035-2.751,0.183-4.113
		c0.76-7.016,6.563-11.19,13.475-9.731C702.456,346.821,703.077,346.975,703.702,347.12z"/>
	<path fill="#171923" d="M533.813,452.462c-4.479-1.772-8.764-3.93-12.822-6.523c-11.188-8.408-18.39-19.345-21.369-33.1
		c-6.521-30.096,14.213-59.954,44.587-64.06c19.844-2.682,40.887,8.037,50.527,25.738c2.686,4.932,1.197,10.784-3.481,13.696
		c-4.746,2.952-11.485,1.687-14.635-3c-4.068-6.053-9.298-10.559-16.254-12.86c-17.957-5.944-37.441,6.867-39.585,25.978
		c-1.873,16.692,7.47,31.159,22.719,35.18c12.705,3.35,25.77-2.116,33.22-14.025c2.453-3.921,5.688-6.215,10.418-5.595
		c7.137,0.935,11.122,8.755,7.353,14.972c-10.274,16.945-25.268,25.946-45.294,26.087
		C543.925,454.984,538.852,453.831,533.813,452.462z"/>
	<path fill="#171923" d="M902.663,429.025c2.146-7.344,4.172-14.249,6.182-21.16c4.947-17.011,9.886-34.023,14.83-51.035
		c0.229-0.789,0.451-1.584,0.74-2.352c2.631-6.949,7.277-9.427,13.934-7.441c5.472,1.632,8.304,6.949,6.527,13.551
		c-1.797,6.689-4.166,13.23-6.385,19.804c-7.244,21.448-14.697,42.828-21.726,64.346c-2.891,8.848-5.741,12.028-18.356,10.925
		c-5.4-0.475-8.344-3.779-9.978-8.807c-7.596-23.354-15.336-46.66-22.969-70.001c-1.842-5.636-4.119-11.154-5.262-16.992
		c-1.822-9.324,5.725-15.861,14.725-12.848c3.98,1.333,5.83,4.598,6.959,8.269c1.773,5.759,3.347,11.581,4.963,17.388
		c5.002,17.945,9.984,35.896,14.98,53.845C902.019,427.197,902.274,427.861,902.663,429.025z"/>
	<path fill="#60C0FE" d="M419.066,407.601c0-12.085-0.055-24.172,0.05-36.257c0.019-2.207-0.447-3.006-2.826-2.944
		c-6.405,0.166-12.82,0.18-19.225,0.004c-8.517-0.233-13.258-8.503-9.005-15.511c2.062-3.397,5.438-4.702,9.104-4.72
		c22.066-0.105,44.132-0.121,66.198-0.004c6.146,0.031,10.521,4.475,10.563,10.065c0.043,5.672-4.461,10.045-10.746,10.178
		c-6.132,0.131-12.271,0.17-18.4-0.018c-2.593-0.078-3.397,0.549-3.385,3.275c0.116,23.072,0.071,46.146,0.059,69.22
		c-0.001,2.467-0.042,4.969-0.791,7.33c-1.747,5.51-6.677,8.438-12.424,7.541c-5.423-0.849-9.085-5.22-9.133-11.354
		c-0.095-12.269-0.028-24.538-0.028-36.808C419.074,407.601,419.07,407.601,419.066,407.601z"/>
	<path fill="#60C0FE" d="M355.839,401.427c0,14.292,0.053,28.584-0.022,42.875c-0.039,7.325-5.007,11.97-12.056,11.529
		c-5.258-0.325-9.489-4.387-9.929-9.638c-0.214-2.546-0.36-5.104-0.363-7.659c-0.026-25.834-0.015-51.669-0.019-77.503
		c0-2.295,0.093-4.603,0.739-6.797c1.607-5.463,6.554-8.501,12.318-7.717c5.423,0.738,9.26,5.199,9.3,11.211
		c0.088,13.008,0.035,26.018,0.039,39.026c0,1.558,0,3.113,0,4.672C355.845,401.427,355.842,401.427,355.839,401.427z"/>
	<path fill="#171923" d="M829.642,418.725c-0.469-8.717-4.358-13.202-12.926-15.493c2.385-0.978,4.502-1.811,6.32-3.183
		c1.918-1.445,3.582-3.139,4.961-5.099c13.293-18.907,2.098-44.088-20.82-46.265c-15.422-1.466-30.932-0.553-46.396-0.437
		c-6.461,0.05-10.178,4.115-10.793,10.566c-0.164,1.729-0.242,3.473-0.242,5.211c-0.016,25.918-0.014,51.837,0.002,77.756
		c0,1.646,0,3.319,0.285,4.928c0.764,4.292,3.067,7.385,7.406,8.645c7.766,2.258,14.397-2.677,14.514-10.993
		c0.133-9.707,0.08-19.417,0.004-29.124c-0.014-1.73,0.354-2.332,2.219-2.297c6.592,0.123,13.189,0.02,19.783,0.056
		c8.414,0.046,12.664,3.556,14.311,11.768c0.976,4.872,1.105,9.81,1.13,14.76c0.02,3.898,0.77,7.657,2.854,11.013
		c2.885,4.645,9.019,6.575,14.254,4.587c4.611-1.752,7.424-5.97,6.285-10.58C830.688,436.038,830.11,427.415,829.642,418.725z
		 M809.126,389.042c-2.088,3.505-5.422,5.21-9.256,5.708c-8.842,1.15-17.746,0.297-26.619,0.55c-1.516,0.043-1.25-0.976-1.252-1.848
		c-0.01-4.122-0.004-8.243-0.004-12.363c0-4.123,0.057-8.246-0.031-12.365c-0.033-1.476,0.281-2.051,1.916-2.029
		c7.783,0.103,15.572-0.075,23.354,0.117C809.026,367.102,815.226,378.8,809.126,389.042z"/>
</g>
</svg>
